<?xml version="1.0" encoding="UTF-8" standalone="no"?><!-- Generator: Gravit.io --><svg xmlns="http://www.w3.org/2000/svg" xmlns:xlink="http://www.w3.org/1999/xlink" style="isolation:isolate" viewBox="-80.746 65 447.525 443.676" width="447.525pt" height="443.676pt"><g><g><path d="M 37.07 109.744 L 308.707 109.744 C 331.927 109.744 350.778 128.595 350.778 151.815 L 350.778 412.599 C 350.778 435.819 331.927 454.67 308.707 454.67 L 37.07 454.67 C 13.85 454.67 -5.001 435.819 -5.001 412.599 L -5.001 151.815 C -5.001 128.595 13.85 109.744 37.07 109.744 Z" style="fill:none;stroke:#00FFFF;stroke-width:32;stroke-linejoin:round;stroke-miterlimit:2;"/><mask id="_mask_atJGrDanGjqCdW9C7OXc8MNYtJRiBcwZ" x="-200%" y="-200%" width="400%" height="400%"><rect x="-200%" y="-200%" width="400%" height="400%" style="fill:white;"/><line x1="63.418" y1="81" x2="63.418" y2="109.744" fill="black" stroke="none"/></mask><line x1="63.418" y1="81" x2="63.418" y2="109.744" mask="url(#_mask_atJGrDanGjqCdW9C7OXc8MNYtJRiBcwZ)" vector-effect="non-scaling-stroke" stroke-width="32" stroke="rgb(0,255,255)" stroke-linejoin="round" stroke-linecap="round" stroke-miterlimit="4"/><mask id="_mask_OhOmksox3ufP8pAMIFfAlEtOVgiefdiC" x="-200%" y="-200%" width="400%" height="400%"><rect x="-200%" y="-200%" width="400%" height="400%" style="fill:white;"/><line x1="282.359" y1="81" x2="282.359" y2="109.744" fill="black" stroke="none"/></mask><line x1="282.359" y1="81" x2="282.359" y2="109.744" mask="url(#_mask_OhOmksox3ufP8pAMIFfAlEtOVgiefdiC)" vector-effect="non-scaling-stroke" stroke-width="32" stroke="rgb(0,255,255)" stroke-linejoin="round" stroke-linecap="round" stroke-miterlimit="4"/></g><g><path d=" M 86.488 492.676 C -28.212 481.375 -113.581 399.487 -33.195 289.66 L 38.695 179.676 L 132 289.66" fill="none" vector-effect="non-scaling-stroke" stroke-width="32" stroke="rgb(0,255,255)" stroke-linejoin="round" stroke-linecap="round" stroke-miterlimit="3"/><path d=" M -30.512 289.66 C 17.488 262.665 71.669 262.675 132 289.66" fill="none" vector-effect="non-scaling-stroke" stroke-width="32" stroke="rgb(0,255,255)" stroke-linejoin="miter" stroke-linecap="round" stroke-miterlimit="3"/></g><path d=" M 183.518 421.489 L 183.518 421.489 L 183.518 421.489 Q 177.425 416.957 174.534 410.317 L 174.534 410.317 L 174.534 410.317 Q 171.643 403.676 173.831 397.114 L 173.831 397.114 L 173.831 397.114 Q 174.143 392.27 176.253 387.817 L 176.253 387.817 L 176.253 387.817 Q 178.362 383.364 181.409 379.301 L 181.409 379.301 L 181.409 379.301 Q 184.456 375.239 188.05 371.645 L 188.05 371.645 L 188.05 371.645 Q 191.643 368.051 194.768 364.926 L 194.768 364.926 L 194.768 364.926 Q 195.393 363.051 196.956 361.645 L 196.956 361.645 L 196.956 361.645 Q 198.518 360.239 200.315 358.911 L 200.315 358.911 L 200.315 358.911 Q 202.112 357.582 203.909 356.02 L 203.909 356.02 L 203.909 356.02 Q 205.706 354.457 206.8 352.426 L 206.8 352.426 L 206.8 352.426 Q 206.175 350.239 204.768 348.051 L 204.768 348.051 L 204.768 348.051 Q 203.362 345.864 201.643 343.676 L 201.643 343.676 L 201.643 343.676 Q 199.925 341.489 198.05 339.301 L 198.05 339.301 L 198.05 339.301 Q 196.175 337.114 194.612 334.77 L 194.612 334.77 L 194.612 334.77 Q 194.456 333.989 193.44 334.301 L 193.44 334.301 L 193.44 334.301 Q 192.425 334.614 191.956 334.145 L 191.956 334.145 L 191.956 334.145 Q 192.268 331.645 190.94 328.754 L 190.94 328.754 L 190.94 328.754 Q 189.612 325.864 187.425 323.832 L 187.425 323.832 L 187.425 323.832 Q 188.206 321.957 188.909 318.989 L 188.909 318.989 L 188.909 318.989 Q 189.612 316.02 188.518 312.582 L 188.518 312.582 L 188.518 312.582 Q 188.362 311.02 188.909 309.614 L 188.909 309.614 L 188.909 309.614 Q 189.456 308.207 190.081 306.957 L 190.081 306.957 L 190.081 306.957 Q 190.706 305.707 191.018 304.536 L 191.018 304.536 L 191.018 304.536 Q 191.331 303.364 190.862 302.114 L 190.862 302.114 L 190.862 302.114 Q 193.206 301.801 195.159 302.348 L 195.159 302.348 L 195.159 302.348 Q 197.112 302.895 198.753 303.598 L 198.753 303.598 L 198.753 303.598 Q 200.393 304.301 201.878 304.77 L 201.878 304.77 L 201.878 304.77 Q 203.362 305.239 204.768 304.614 L 204.768 304.614 L 204.768 304.614 Q 204.456 305.551 204.69 305.942 L 204.69 305.942 L 204.69 305.942 Q 204.925 306.332 205.315 306.567 L 205.315 306.567 L 205.315 306.567 Q 205.706 306.801 206.097 306.957 L 206.097 306.957 L 206.097 306.957 Q 206.487 307.114 206.487 307.739 L 206.487 307.739 L 206.487 307.739 Q 209.456 308.676 212.972 311.801 L 212.972 311.801 L 212.972 311.801 Q 216.487 314.926 219.768 318.676 L 219.768 318.676 L 219.768 318.676 Q 223.05 322.426 225.706 326.098 L 225.706 326.098 L 225.706 326.098 Q 228.362 329.77 229.612 331.801 L 229.612 331.801 L 229.612 331.801 Q 234.143 328.989 239.378 325.082 L 239.378 325.082 L 239.378 325.082 Q 244.612 321.176 250.159 317.114 L 250.159 317.114 L 250.159 317.114 Q 255.706 313.051 261.409 309.379 L 261.409 309.379 L 261.409 309.379 Q 267.112 305.707 272.581 303.52 L 272.581 303.52 L 272.581 303.52 Q 275.706 304.926 277.503 307.114 L 277.503 307.114 L 277.503 307.114 Q 279.3 309.301 280.472 311.723 L 280.472 311.723 L 280.472 311.723 Q 281.643 314.145 282.659 316.567 L 282.659 316.567 L 282.659 316.567 Q 283.675 318.989 285.393 320.864 L 285.393 320.864 L 285.393 320.864 Q 283.831 323.989 282.112 326.098 L 282.112 326.098 L 282.112 326.098 Q 280.393 328.207 279.612 331.176 L 279.612 331.176 L 279.612 331.176 Q 275.706 332.739 270.237 336.176 L 270.237 336.176 L 270.237 336.176 Q 265.55 339.145 258.362 344.301 L 258.362 344.301 L 258.362 344.301 Q 251.175 349.457 241.331 357.895 L 241.331 357.895 L 241.331 357.895 Q 243.675 360.551 245.159 362.895 L 245.159 362.895 L 245.159 362.895 Q 246.643 365.239 247.581 366.957 L 247.581 366.957 L 247.581 366.957 Q 248.675 368.989 249.3 370.707 L 249.3 370.707 L 249.3 370.707 Q 251.018 371.957 252.112 373.676 L 252.112 373.676 L 252.112 373.676 Q 253.206 375.395 254.222 377.192 L 254.222 377.192 L 254.222 377.192 Q 255.237 378.989 256.487 380.551 L 256.487 380.551 L 256.487 380.551 Q 257.737 382.114 259.768 383.051 L 259.768 383.051 L 259.768 383.051 Q 260.393 385.864 261.331 388.286 L 261.331 388.286 L 261.331 388.286 Q 262.268 390.707 263.128 393.051 L 263.128 393.051 L 263.128 393.051 Q 263.987 395.395 264.534 397.661 L 264.534 397.661 L 264.534 397.661 Q 265.081 399.926 264.925 402.27 L 264.925 402.27 L 264.925 402.27 Q 263.675 406.489 261.175 409.301 L 261.175 409.301 L 261.175 409.301 Q 258.675 412.114 257.581 415.082 L 257.581 415.082 L 257.581 415.082 Q 255.862 415.551 254.222 416.098 L 254.222 416.098 L 254.222 416.098 Q 252.581 416.645 251.487 417.739 L 251.487 417.739 L 240.862 410.239 L 240.862 410.239 Q 238.05 400.864 232.737 392.27 L 232.737 392.27 L 232.737 392.27 Q 227.425 383.676 222.425 377.426 L 222.425 377.426 L 222.425 377.426 Q 214.925 383.207 208.05 390.239 L 208.05 390.239 L 208.05 390.239 Q 201.175 397.27 195.55 405.239 L 195.55 405.239 L 195.55 405.239 Q 195.237 409.145 194.612 411.723 L 194.612 411.723 L 194.612 411.723 Q 193.987 414.301 192.581 416.02 L 192.581 416.02 L 192.581 416.02 Q 191.175 417.739 188.987 418.989 L 188.987 418.989 L 188.987 418.989 Q 186.8 420.239 183.518 421.489 Z " fill="rgb(0,255,255)"/></g></svg>